<mxfile host="app.diagrams.net" modified="2023-04-06T19:17:40.782Z" agent="Mozilla/5.0 (Windows NT 10.0; Win64; x64) AppleWebKit/537.36 (KHTML, like Gecko) Chrome/111.0.0.0 Safari/537.36" etag="4gNfkkpLOMTlOqT91ini" version="21.1.4" type="github">
  <diagram name="PÃ¡gina-1" id="mamEmthqfWYG_xrEfyOM">
    <mxGraphModel dx="733" dy="1546" grid="1" gridSize="10" guides="1" tooltips="1" connect="1" arrows="1" fold="1" page="1" pageScale="1" pageWidth="827" pageHeight="1169" math="0" shadow="0">
      <root>
        <mxCell id="0" />
        <mxCell id="1" parent="0" />
        <mxCell id="KML4cwTxexPrMx549HIO-16" style="edgeStyle=orthogonalEdgeStyle;rounded=0;orthogonalLoop=1;jettySize=auto;html=1;exitX=0.5;exitY=1;exitDx=0;exitDy=0;entryX=0.5;entryY=0;entryDx=0;entryDy=0;endArrow=none;endFill=0;" edge="1" parent="1" source="KML4cwTxexPrMx549HIO-5" target="KML4cwTxexPrMx549HIO-15">
          <mxGeometry relative="1" as="geometry" />
        </mxCell>
        <mxCell id="KML4cwTxexPrMx549HIO-5" value="Relationship" style="shape=rhombus;perimeter=rhombusPerimeter;whiteSpace=wrap;html=1;align=center;" vertex="1" parent="1">
          <mxGeometry x="570" y="350" width="120" height="60" as="geometry" />
        </mxCell>
        <mxCell id="KML4cwTxexPrMx549HIO-12" value="ID" style="ellipse;whiteSpace=wrap;html=1;align=center;fontStyle=4;" vertex="1" parent="1">
          <mxGeometry x="414" y="10" width="80" height="30" as="geometry" />
        </mxCell>
        <mxCell id="KML4cwTxexPrMx549HIO-13" value="Nombre" style="ellipse;whiteSpace=wrap;html=1;align=center;" vertex="1" parent="1">
          <mxGeometry x="524" y="30" width="80" height="30" as="geometry" />
        </mxCell>
        <mxCell id="KML4cwTxexPrMx549HIO-15" value="Entity" style="whiteSpace=wrap;html=1;align=center;" vertex="1" parent="1">
          <mxGeometry x="580" y="460" width="100" height="40" as="geometry" />
        </mxCell>
        <mxCell id="KML4cwTxexPrMx549HIO-19" style="edgeStyle=orthogonalEdgeStyle;rounded=0;orthogonalLoop=1;jettySize=auto;html=1;exitX=0.5;exitY=1;exitDx=0;exitDy=0;entryX=0.5;entryY=0;entryDx=0;entryDy=0;endArrow=none;endFill=0;" edge="1" parent="1" source="KML4cwTxexPrMx549HIO-17" target="KML4cwTxexPrMx549HIO-5">
          <mxGeometry relative="1" as="geometry" />
        </mxCell>
        <mxCell id="KML4cwTxexPrMx549HIO-17" value="Entity" style="whiteSpace=wrap;html=1;align=center;" vertex="1" parent="1">
          <mxGeometry x="580" y="270" width="100" height="40" as="geometry" />
        </mxCell>
        <mxCell id="KML4cwTxexPrMx549HIO-28" style="edgeStyle=orthogonalEdgeStyle;rounded=0;orthogonalLoop=1;jettySize=auto;html=1;exitX=0;exitY=0;exitDx=0;exitDy=0;entryX=0.5;entryY=1;entryDx=0;entryDy=0;endArrow=none;endFill=0;" edge="1" parent="1" source="KML4cwTxexPrMx549HIO-26" target="KML4cwTxexPrMx549HIO-12">
          <mxGeometry relative="1" as="geometry" />
        </mxCell>
        <mxCell id="KML4cwTxexPrMx549HIO-29" style="edgeStyle=orthogonalEdgeStyle;rounded=0;orthogonalLoop=1;jettySize=auto;html=1;exitX=0.5;exitY=0;exitDx=0;exitDy=0;entryX=0.5;entryY=1;entryDx=0;entryDy=0;endArrow=none;endFill=0;" edge="1" parent="1" source="KML4cwTxexPrMx549HIO-26" target="KML4cwTxexPrMx549HIO-13">
          <mxGeometry relative="1" as="geometry" />
        </mxCell>
        <mxCell id="KML4cwTxexPrMx549HIO-39" style="edgeStyle=orthogonalEdgeStyle;shape=connector;rounded=0;orthogonalLoop=1;jettySize=auto;html=1;exitX=1;exitY=0;exitDx=0;exitDy=0;entryX=0.5;entryY=1;entryDx=0;entryDy=0;labelBackgroundColor=default;strokeColor=default;fontFamily=Helvetica;fontSize=11;fontColor=default;endArrow=none;endFill=0;" edge="1" parent="1" source="KML4cwTxexPrMx549HIO-26" target="KML4cwTxexPrMx549HIO-38">
          <mxGeometry relative="1" as="geometry" />
        </mxCell>
        <mxCell id="KML4cwTxexPrMx549HIO-43" style="edgeStyle=orthogonalEdgeStyle;shape=connector;rounded=0;orthogonalLoop=1;jettySize=auto;html=1;exitX=0;exitY=0;exitDx=0;exitDy=0;entryX=0.5;entryY=1;entryDx=0;entryDy=0;labelBackgroundColor=default;strokeColor=default;fontFamily=Helvetica;fontSize=11;fontColor=default;endArrow=none;endFill=0;" edge="1" parent="1" source="KML4cwTxexPrMx549HIO-26" target="KML4cwTxexPrMx549HIO-40">
          <mxGeometry relative="1" as="geometry" />
        </mxCell>
        <mxCell id="KML4cwTxexPrMx549HIO-44" style="edgeStyle=orthogonalEdgeStyle;shape=connector;rounded=0;orthogonalLoop=1;jettySize=auto;html=1;exitX=1;exitY=0;exitDx=0;exitDy=0;entryX=0.5;entryY=1;entryDx=0;entryDy=0;labelBackgroundColor=default;strokeColor=default;fontFamily=Helvetica;fontSize=11;fontColor=default;endArrow=none;endFill=0;" edge="1" parent="1" source="KML4cwTxexPrMx549HIO-26" target="KML4cwTxexPrMx549HIO-41">
          <mxGeometry relative="1" as="geometry" />
        </mxCell>
        <mxCell id="KML4cwTxexPrMx549HIO-26" value="Cliente" style="whiteSpace=wrap;html=1;align=center;" vertex="1" parent="1">
          <mxGeometry x="514" y="80" width="100" height="40" as="geometry" />
        </mxCell>
        <mxCell id="KML4cwTxexPrMx549HIO-31" value="Compras" style="whiteSpace=wrap;html=1;align=center;fontFamily=Helvetica;fontSize=11;fontColor=default;" vertex="1" parent="1">
          <mxGeometry x="870" y="80" width="100" height="40" as="geometry" />
        </mxCell>
        <mxCell id="KML4cwTxexPrMx549HIO-32" value="ID" style="ellipse;whiteSpace=wrap;html=1;align=center;fontStyle=4;fontFamily=Helvetica;fontSize=11;fontColor=default;" vertex="1" parent="1">
          <mxGeometry x="780" width="80" height="30" as="geometry" />
        </mxCell>
        <mxCell id="KML4cwTxexPrMx549HIO-33" value="Attribute" style="ellipse;whiteSpace=wrap;html=1;align=center;strokeColor=default;fontFamily=Helvetica;fontSize=11;fontColor=default;fillColor=default;" vertex="1" parent="1">
          <mxGeometry x="350" y="190" width="70" height="30" as="geometry" />
        </mxCell>
        <mxCell id="KML4cwTxexPrMx549HIO-35" value="Attribute" style="ellipse;whiteSpace=wrap;html=1;align=center;" vertex="1" parent="1">
          <mxGeometry x="890" width="80" height="30" as="geometry" />
        </mxCell>
        <mxCell id="KML4cwTxexPrMx549HIO-36" value="Attribute" style="ellipse;whiteSpace=wrap;html=1;align=center;" vertex="1" parent="1">
          <mxGeometry x="980" width="80" height="30" as="geometry" />
        </mxCell>
        <mxCell id="KML4cwTxexPrMx549HIO-37" value="Attribute" style="ellipse;whiteSpace=wrap;html=1;align=center;" vertex="1" parent="1">
          <mxGeometry x="1020" y="40" width="80" height="30" as="geometry" />
        </mxCell>
        <mxCell id="KML4cwTxexPrMx549HIO-38" value="Apellido M" style="ellipse;whiteSpace=wrap;html=1;align=center;" vertex="1" parent="1">
          <mxGeometry x="650" y="20" width="80" height="30" as="geometry" />
        </mxCell>
        <mxCell id="KML4cwTxexPrMx549HIO-40" value="Nombre" style="ellipse;whiteSpace=wrap;html=1;align=center;" vertex="1" parent="1">
          <mxGeometry x="480" y="-20" width="80" height="30" as="geometry" />
        </mxCell>
        <mxCell id="KML4cwTxexPrMx549HIO-41" value="Apellido P" style="ellipse;whiteSpace=wrap;html=1;align=center;" vertex="1" parent="1">
          <mxGeometry x="570" y="-20" width="80" height="30" as="geometry" />
        </mxCell>
      </root>
    </mxGraphModel>
  </diagram>
</mxfile>
